<svg viewBox="320.611 129.667 60.106 43.499" width="60.1" height="43.5" xmlns="http://www.w3.org/2000/svg">
    <g transform="matrix(0.259081, 0, 0, 0.259081, 138.607, -148.222)">
      <path fill="#503750" d="M908.2,1072.6H728.8c-14.5,0-26.3,11.8-26.3,26.3v115.3c0,14.5,11.8,26.3,26.3,26.3h179.3c14.5,0,26.3-11.8,26.3-26.3v-115.3C934.5,1084.4,922.7,1072.6,908.2,1072.6z M913.8,1222c0,8.1-6.6,14.7-14.7,14.7H722.7c-8.1,0-14.7-6.6-14.7-14.7v-130.5c0-8.1,6.6-14.7,14.7-14.7h176.5c8.1,0,14.7,6.6,14.7,14.7V1222z"/>
      <path fill="#503750" d="M899.2,1078.8H722.7c-7,0-12.7,5.7-12.7,12.7V1222c0,7,5.7,12.7,12.7,12.7h176.5c7,0,12.7-5.7,12.7-12.7v-130.5C911.8,1084.5,906.2,1078.8,899.2,1078.8z M900.6,1178.4h-42.3c0.8-2.6,1.5-5.2,2.1-7.9h41.1L900.6,1178.4z M908.5,1098.1l-6.2,6.3c0,0-0.1,0.1-0.2,0.1c0,0,0,0.1-0.1,0.1l-1.4,1.4c-0.2,0.2-0.5,0.3-0.7,0.3c-0.1,0-0.3,0-0.4-0.1c-0.1,0-0.2,0.1-0.3,0.1c-0.1,0-0.3,0-0.4-0.1l-5.2-2.3l-2.7,2.7c1.1,1.4,1.9,3,2.3,4.8h2.2c3.1,0,5.7,2.4,6,5.5v31.2h1.4c0.6,0,1,0.4,1,1v1.6c0,0.6-0.4,1-1,1h-0.4v17.3c0,0.6-0.4,1-1,1h-40.8c-0.3,0-0.6-0.1-0.8-0.4c-0.2-0.2-0.3-0.5-0.2-0.8c0.8-4.2,1.1-8.6,1.1-12.9c0-4.5-0.4-8.9-1.2-13.2l-0.6,1c0.7,4,1.1,8.1,1.1,12.2c0,39.6-32.1,71.6-71.6,71.6c-39.6,0-71.6-32.1-71.6-71.6c0-39.6,29.6-71.6,71.6-71.6c33.1,0,60.9,22.4,69.1,52.8l0.6-0.9c-0.8-2.9-1.8-5.7-3-8.5c-1.6-3.8-3.6-7.6-5.8-11c-0.2-0.3-0.2-0.7,0-1c0.2-0.3,0.5-0.5,0.9-0.5h14.6c0.1-8,6.5-14.4,14.5-14.4c3.1,0,6,1,8.3,2.6l2.8-2.8l-2.2-4.9c-0.1-0.2-0.1-0.5,0-0.7c-0.1-0.1-0.1-0.3-0.1-0.4c0-0.3,0.1-0.5,0.3-0.7l1.4-1.4c0,0,0.1-0.1,0.2-0.1c0,0,0-0.1,0.1-0.1l6.2-6.3c0.2-0.2,0.4-0.3,0.7-0.3c0.3,0,0.5,0.1,0.7,0.3l11,10.8C908.9,1097.1,908.9,1097.7,908.5,1098.1z"/>
      <path fill="#503750" d="M788.1,1089.3c-36.7,0-66.6,29.9-66.6,66.6c0,36.7,29.9,66.6,66.6,66.6c36.7,0,66.6-29.9,66.6-66.6C854.7,1119.2,824.8,1089.3,788.1,1089.3z M788.1,1177.3c-11.8,0-21.5-9.6-21.5-21.4c0-11.9,9.6-21.5,21.5-21.5c11.8,0,21.5,9.6,21.5,21.5C809.5,1167.7,799.9,1177.3,788.1,1177.3z"/>
      <path fill="#503750" d="M864.8,1117.1H852c1.9,3.1,3.6,6.4,5,9.8c1,2.3,1.8,4.6,2.5,7l1.8-2.9c2.4-4,7.8-9,8.4-9.6l0.1-0.1c-0.8-1.2-1.4-2.7-1.6-4.2L864.8,1117.1z"/>
      <path fill="#503750" d="M861.9,1168h7.6c0.3,0.3,0.7,0.5,1.2,0.5c0.5,0,0.9-0.2,1.2-0.5h18.9c0.2,0,0.4,0,0.7,0c0.2,0,0.4,0,0.7,0h8.4v-2c-0.3,0.5-0.9,0.9-1.6,0.9c-0.3,0-0.7-0.1-0.9-0.3l-2.3-1.3c-1.1,1.1-2.6,1.7-4.3,1.7c-3.4,0-6.2-2.8-6.2-6.2s2.8-6.2,6.2-6.2c3.4,0,6.2,2.8,6.2,6.2c0,0.4,0,0.8-0.1,1.2l2.4,1.4c0.3,0.1,0.5,0.4,0.6,0.6v-12.3H878c-0.6,0-1-0.4-1-1v-0.1v-1.6v-22.9c-1.4-0.3-2.7-0.8-3.8-1.6l-0.1,0.2l-0.1,0c-0.1,0.1-5.5,5-7.6,8.5l0,0l-4.1,6.7c1.1,5.1,1.7,10.4,1.7,15.7C862.9,1159.9,862.6,1164,861.9,1168z"/>
    </g>
  </svg>